<?xml version="1.0" standalone="no"?>
<!DOCTYPE svg PUBLIC "-//W3C//DTD SVG 20010904//EN"
 "http://www.w3.org/TR/2001/REC-SVG-20010904/DTD/svg10.dtd">
<svg version="1.0" xmlns="http://www.w3.org/2000/svg"
 width="914.000000pt" height="136.000000pt" viewBox="0 0 914.000000 136.000000"
 preserveAspectRatio="xMidYMid meet">

<g transform="translate(0.000000,136.000000) scale(0.100000,-0.100000)"
fill="#000000" stroke="none">
<path d="M0 680 l0 -680 4570 0 4570 0 0 680 0 680 -4570 0 -4570 0 0 -680z
m3710 650 c0 -5 -4 -10 -10 -10 -5 0 -10 5 -10 10 0 6 5 10 10 10 6 0 10 -4
10 -10z m240 -34 c0 -26 5 -46 13 -49 6 -3 -4 -5 -23 -5 -19 0 -27 2 -17 5 20
5 25 78 5 86 -8 3 -6 6 5 6 14 1 17 -7 17 -43z m235 9 c16 0 20 -7 21 -35 l2
-35 -5 33 c-6 42 -35 40 -44 -3 -5 -22 -7 -16 -7 25 0 31 3 46 6 35 4 -11 16
-20 27 -20z m325 25 c0 -5 -4 -10 -10 -10 -5 0 -10 5 -10 10 0 6 5 10 10 10 6
0 10 -4 10 -10z m1060 -39 c0 -46 -1 -48 -27 -47 -24 1 -28 5 -28 31 0 23 5
31 23 33 12 2 22 10 22 18 0 8 2 14 5 14 3 0 5 -22 5 -49z m600 -1 c5 0 12 5
15 10 3 6 11 10 17 10 6 0 4 -8 -5 -18 -15 -17 -15 -20 1 -37 17 -19 16 -19
-4 -2 -26 21 -31 21 -37 0 -3 -10 -5 7 -4 37 0 30 2 43 4 28 2 -16 8 -28 13
-28z m320 0 c5 0 12 5 15 10 3 6 11 10 17 10 6 0 4 -8 -5 -18 -15 -17 -15 -20
1 -37 17 -19 16 -19 -4 -2 -26 21 -31 21 -37 0 -3 -10 -5 7 -4 37 0 30 2 43 4
28 2 -16 8 -28 13 -28z m415 15 c16 0 20 -7 20 -30 0 -25 -4 -30 -27 -33 -28
-3 -28 -2 -27 50 1 31 4 45 7 33 4 -11 16 -20 27 -20z m245 20 c0 -8 -4 -15
-10 -15 -5 0 -10 7 -10 15 0 8 5 15 10 15 6 0 10 -7 10 -15z m160 0 c0 -8 -4
-15 -10 -15 -5 0 -10 7 -10 15 0 8 5 15 10 15 6 0 10 -7 10 -15z m-3515 -18
c18 -4 18 -5 -2 -6 -16 -1 -23 -7 -23 -21 0 -12 10 -24 23 -30 l22 -9 -22 0
c-17 -1 -25 7 -31 32 -9 33 -4 67 7 49 3 -5 15 -12 26 -15z m1440 0 c18 -4 18
-5 -2 -6 -16 -1 -23 -7 -23 -21 0 -12 10 -24 23 -30 l22 -9 -22 0 c-17 -1 -25
7 -31 32 -9 33 -4 67 7 49 3 -5 15 -12 26 -15z m2410 -22 c0 -35 -3 -40 -24
-40 -28 0 -42 30 -30 63 6 17 15 22 31 20 20 -3 23 -9 23 -43z m-4182 15 c-13
-5 -23 -16 -23 -25 0 -9 10 -20 23 -25 17 -8 18 -9 3 -7 -28 3 -43 32 -27 51
8 9 21 16 30 15 11 0 9 -3 -6 -9z m105 -26 c3 -28 1 -31 -25 -30 -35 1 -38 28
-3 37 l25 6 -25 12 -25 11 25 -3 c20 -2 26 -8 28 -33z m77 1 c0 -23 -5 -31
-22 -33 -12 -2 -24 -11 -26 -20 -3 -9 -5 6 -6 34 -1 49 0 51 27 50 23 -1 27
-5 27 -31z m65 6 c0 -16 6 -32 13 -34 6 -3 -4 -5 -23 -5 -19 0 -27 2 -17 5 20
5 24 49 5 56 -8 3 -6 6 5 6 12 1 17 -7 17 -28z m178 -7 c3 -28 1 -31 -25 -30
-35 1 -38 28 -3 37 l25 6 -25 12 -25 11 25 -3 c20 -2 26 -8 28 -33z m215 26
c-13 -5 -23 -16 -23 -25 0 -9 10 -20 23 -25 17 -8 18 -9 3 -7 -28 3 -43 32
-27 51 8 9 21 16 30 15 11 0 9 -3 -6 -9z m185 -26 c3 -28 1 -31 -25 -30 -35 1
-38 28 -3 37 l25 6 -25 12 -25 11 25 -3 c20 -2 26 -8 28 -33z m80 15 c3 -11 2
-11 -7 1 -13 18 -27 5 -34 -30 -4 -21 -4 -21 -6 7 -1 40 37 59 47 22z m142 -8
c0 -16 6 -32 13 -34 6 -3 -4 -5 -23 -5 -19 0 -27 2 -17 5 20 5 24 49 5 56 -8
3 -6 6 5 6 12 1 17 -7 17 -28z m96 -6 c1 -30 1 -30 -3 -2 -6 38 -36 32 -44 -8
-7 -30 -7 -30 -8 6 -1 33 1 36 27 35 23 -1 27 -5 28 -31z m137 25 c-13 -5 -23
-16 -23 -25 0 -9 10 -20 23 -25 17 -8 18 -9 3 -7 -28 3 -43 32 -27 51 8 9 21
16 30 15 11 0 9 -3 -6 -9z m102 -25 c0 -25 -4 -30 -25 -30 -16 0 -26 6 -28 18
-6 30 6 49 30 45 18 -2 23 -9 23 -33z m83 14 c3 -11 2 -11 -7 1 -13 18 -27 5
-34 -30 -4 -21 -4 -21 -6 7 -1 40 37 59 47 22z m80 0 c3 -11 2 -11 -7 1 -13
18 -27 5 -34 -30 -4 -21 -4 -21 -6 7 -1 40 37 59 47 22z m80 -1 c3 -14 -3 -18
-24 -18 -30 0 -23 -14 11 -23 12 -3 8 -5 -10 -4 -31 2 -43 23 -31 53 8 21 50
14 54 -8z m55 12 c-13 -5 -23 -16 -23 -25 0 -9 10 -20 23 -25 17 -8 18 -9 3
-7 -28 3 -43 32 -27 51 8 9 21 16 30 15 11 0 9 -3 -6 -9z m262 -25 c0 -25 -4
-30 -25 -30 -16 0 -26 6 -28 18 -6 30 6 49 30 45 18 -2 23 -9 23 -33z m83 14
c3 -11 2 -11 -7 1 -13 18 -27 5 -34 -30 -4 -21 -4 -21 -6 7 -1 40 37 59 47 22z
m160 -1 c3 -14 -3 -18 -24 -18 -30 0 -23 -14 11 -23 12 -3 8 -5 -10 -4 -31 2
-43 23 -31 53 8 21 50 14 54 -8z m80 1 c3 -11 2 -11 -7 1 -13 18 -27 5 -34
-30 -4 -21 -4 -21 -6 7 -1 40 37 59 47 22z m241 -18 l-2 -36 -7 35 -7 35 -3
-35 c-1 -22 -4 -27 -7 -15 -10 45 -17 50 -23 15 l-7 -35 -2 37 c-1 35 1 37 29
36 28 -1 30 -4 29 -37z m79 3 c3 -28 1 -31 -25 -30 -35 1 -38 28 -3 37 l25 6
-25 12 -25 11 25 -3 c20 -2 26 -8 28 -33z m80 15 c3 -11 2 -11 -7 1 -13 18
-27 5 -34 -30 -4 -21 -4 -21 -6 7 -1 40 37 59 47 22z m212 -34 c8 0 18 13 21
30 7 30 7 30 8 -6 1 -33 -1 -36 -26 -35 -25 1 -28 5 -30 36 -1 34 -1 34 5 5 4
-17 14 -30 22 -30z m106 20 c1 -30 1 -30 -3 -2 -6 38 -36 32 -44 -8 -7 -30 -7
-30 -8 6 -1 33 1 36 27 35 23 -1 27 -5 28 -31z m159 0 c0 -25 -4 -30 -25 -30
-16 0 -26 6 -28 18 -6 30 6 49 30 45 18 -2 23 -9 23 -33z m38 -2 c4 -19 2 -33
-3 -33 -6 0 -10 17 -10 37 0 43 5 41 13 -4z m43 -31 c-11 -10 -14 3 -7 38 l6
35 3 -33 c2 -19 1 -36 -2 -40z m80 33 c1 -30 1 -30 -3 -2 -6 38 -36 32 -44 -8
-7 -30 -7 -30 -8 6 -1 33 1 36 27 35 23 -1 27 -5 28 -31z m217 -16 c12 -8 -10
-49 -26 -49 -8 0 -8 3 2 9 13 8 12 20 -4 78 -3 10 0 7 7 -7 7 -14 16 -28 21
-31z m18 24 c-12 -20 -14 -14 -5 12 4 9 9 14 11 11 3 -2 0 -13 -6 -23z m389
17 c0 -5 -4 -10 -10 -10 -5 0 -10 5 -10 10 0 6 5 10 10 10 6 0 10 -4 10 -10z
m-720 -30 c0 -5 -2 -10 -4 -10 -3 0 -8 5 -11 10 -3 6 -1 10 4 10 6 0 11 -4 11
-10z m-5900 -290 l0 -290 -290 0 -290 0 0 290 0 290 290 0 290 0 0 -290z m620
0 l0 -290 -290 0 -290 0 0 290 0 290 290 0 290 0 0 -290z m620 0 l0 -290 -290
0 -290 0 0 290 0 290 290 0 290 0 0 -290z m620 0 l0 -290 -290 0 -290 0 0 290
0 290 290 0 290 0 0 -290z m620 0 l0 -290 -290 0 -290 0 0 290 0 290 290 0
290 0 0 -290z m2538 263 c-2 -9 -9 -18 -16 -19 -7 -1 -8 0 -3 2 6 3 7 12 4 20
-3 8 0 14 7 14 6 0 10 -8 8 -17z m1602 7 c0 -5 -4 -10 -10 -10 -5 0 -10 5 -10
10 0 6 5 10 10 10 6 0 10 -4 10 -10z m-147 -37 c-13 -2 -33 -2 -45 0 -13 2 -3
4 22 4 25 0 35 -2 23 -4z m320 0 c-13 -2 -33 -2 -45 0 -13 2 -3 4 22 4 25 0
35 -2 23 -4z m280 0 c-35 -2 -91 -2 -125 0 -35 2 -7 3 62 3 69 0 97 -1 63 -3z
m-4373 -43 c0 -5 -4 -10 -10 -10 -5 0 -10 5 -10 10 0 6 5 10 10 10 6 0 10 -4
10 -10z m980 -39 c0 -46 -1 -48 -27 -47 -24 1 -28 5 -28 31 0 23 5 31 23 33
12 2 22 10 22 18 0 8 2 14 5 14 3 0 5 -22 5 -49z m860 39 c0 -5 -4 -10 -10
-10 -5 0 -10 5 -10 10 0 6 5 10 10 10 6 0 10 -4 10 -10z m960 0 c0 -5 -4 -10
-10 -10 -5 0 -10 5 -10 10 0 6 5 10 10 10 6 0 10 -4 10 -10z m620 -40 c5 0 12
5 15 10 3 6 11 10 17 10 6 0 4 -8 -5 -18 -15 -17 -15 -20 1 -37 17 -19 16 -19
-4 -2 -26 21 -31 21 -37 0 -3 -10 -5 7 -4 37 0 30 2 43 4 28 2 -16 8 -28 13
-28z m335 15 c16 0 20 -7 21 -35 l2 -35 -5 33 c-6 42 -35 40 -44 -3 -5 -22 -7
-16 -7 25 0 31 3 46 6 35 4 -11 16 -20 27 -20z m320 0 c16 0 20 -7 20 -30 0
-25 -4 -30 -27 -33 -28 -3 -28 -2 -27 50 1 31 4 45 7 33 4 -11 16 -20 27 -20z
m245 20 c0 -8 -4 -15 -10 -15 -5 0 -10 7 -10 15 0 8 5 15 10 15 6 0 10 -7 10
-15z m88 -16 c2 -17 -3 -29 -12 -32 -9 -4 -16 -2 -16 3 0 6 5 10 10 10 17 0
11 28 -7 40 -16 10 -16 10 2 8 13 -2 21 -12 23 -29z m72 16 c0 -8 -4 -15 -10
-15 -5 0 -10 7 -10 15 0 8 5 15 10 15 6 0 10 -7 10 -15z m328 -16 c2 -17 -3
-29 -12 -32 -9 -4 -16 -2 -16 3 0 6 5 10 10 10 17 0 11 28 -7 40 -16 10 -16
10 2 8 13 -2 21 -12 23 -29z m80 0 c2 -17 -3 -29 -12 -32 -9 -4 -16 -2 -16 3
0 6 5 10 10 10 17 0 11 28 -7 40 -16 10 -16 10 2 8 13 -2 21 -12 23 -29z m80
0 c2 -17 -3 -29 -12 -32 -9 -4 -16 -2 -16 3 0 6 5 10 10 10 17 0 11 28 -7 40
-16 10 -16 10 2 8 13 -2 21 -12 23 -29z m80 0 c2 -17 -3 -29 -12 -32 -9 -4
-16 -2 -16 3 0 6 5 10 10 10 17 0 11 28 -7 40 -16 10 -16 10 2 8 13 -2 21 -12
23 -29z m-4403 -2 c18 -4 18 -5 -2 -6 -16 -1 -23 -7 -23 -21 0 -12 10 -24 23
-30 l22 -9 -22 0 c-17 -1 -25 7 -31 32 -9 33 -4 67 7 49 3 -5 15 -12 26 -15z
m1520 0 c18 -4 18 -5 -2 -6 -16 -1 -23 -7 -23 -21 0 -12 10 -24 23 -30 l22 -9
-22 0 c-17 -1 -25 7 -31 32 -9 33 -4 67 7 49 3 -5 15 -12 26 -15z m480 0 c18
-4 18 -5 -2 -6 -16 -1 -23 -7 -23 -21 0 -12 10 -24 23 -30 l22 -9 -22 0 c-17
-1 -25 7 -31 32 -9 33 -4 67 7 49 3 -5 15 -12 26 -15z m1040 0 c18 -4 18 -5
-2 -6 -16 -1 -23 -7 -23 -21 0 -12 10 -24 23 -30 l22 -9 -22 0 c-17 -1 -25 7
-31 32 -9 33 -4 67 7 49 3 -5 15 -12 26 -15z m1050 -22 c0 -36 -3 -40 -27 -43
-27 -3 -28 -2 -28 43 0 45 1 46 28 43 24 -3 27 -7 27 -43z m-4735 -4 c0 -16 6
-32 13 -34 6 -3 -4 -5 -23 -5 -19 0 -27 2 -17 5 20 5 24 49 5 56 -8 3 -6 6 5
6 12 1 17 -7 17 -28z m96 -6 c1 -30 1 -30 -3 -2 -6 38 -36 32 -44 -8 -7 -30
-7 -30 -8 6 -1 33 1 36 27 35 23 -1 27 -5 28 -31z m57 25 c-13 -5 -23 -16 -23
-25 0 -9 10 -20 23 -25 17 -8 18 -9 3 -7 -28 3 -43 32 -27 51 8 9 21 16 30 15
11 0 9 -3 -6 -9z m102 -25 c0 -25 -4 -30 -25 -30 -16 0 -26 6 -28 18 -6 30 6
49 30 45 18 -2 23 -9 23 -33z m83 14 c3 -11 2 -11 -7 1 -13 18 -27 5 -34 -30
-4 -21 -4 -21 -6 7 -1 40 37 59 47 22z m80 0 c3 -11 2 -11 -7 1 -13 18 -27 5
-34 -30 -4 -21 -4 -21 -6 7 -1 40 37 59 47 22z m80 -1 c3 -14 -3 -18 -24 -18
-30 0 -23 -14 11 -23 12 -3 8 -5 -10 -4 -31 2 -43 23 -31 53 8 21 50 14 54 -8z
m55 12 c-13 -5 -23 -16 -23 -25 0 -9 10 -20 23 -25 17 -8 18 -9 3 -7 -28 3
-43 32 -27 51 8 9 21 16 30 15 11 0 9 -3 -6 -9z m262 -25 c0 -25 -4 -30 -25
-30 -16 0 -26 6 -28 18 -6 30 6 49 30 45 18 -2 23 -9 23 -33z m83 14 c3 -11 2
-11 -7 1 -13 18 -27 5 -34 -30 -4 -21 -4 -21 -6 7 -1 40 37 59 47 22z m160 -1
c3 -14 -3 -18 -24 -18 -30 0 -23 -14 11 -23 12 -3 8 -5 -10 -4 -31 2 -43 23
-31 53 8 21 50 14 54 -8z m80 1 c3 -11 2 -11 -7 1 -13 18 -27 5 -34 -30 -4
-21 -4 -21 -6 7 -1 40 37 59 47 22z m157 4 c-2 -10 -4 -21 -4 -25 -1 -4 -11
-9 -23 -11 -19 -4 -18 -5 5 -6 37 -1 34 -36 -3 -36 -21 0 -25 5 -27 35 -4 48
2 60 31 60 18 0 23 -5 21 -17z m55 -38 c8 0 18 13 21 30 7 30 7 30 8 -6 1 -33
-1 -36 -26 -35 -25 1 -28 5 -30 36 -1 34 -1 34 5 5 4 -17 14 -30 22 -30z m108
33 c3 -14 -3 -18 -24 -18 -30 0 -23 -14 11 -23 12 -3 8 -5 -10 -4 -31 2 -43
23 -31 53 8 21 50 14 54 -8z m60 15 c-24 -6 -23 -19 3 -26 30 -8 18 -32 -17
-34 l-29 -2 30 8 c30 7 30 7 8 19 -13 7 -23 19 -23 27 0 9 9 15 23 14 16 -1
18 -2 5 -6z m80 0 c-24 -6 -23 -19 3 -26 30 -8 18 -32 -17 -34 l-29 -2 30 8
c30 7 30 7 8 19 -13 7 -23 19 -23 27 0 9 9 15 23 14 16 -1 18 -2 5 -6z m242
-22 c0 -16 6 -32 13 -34 6 -3 -4 -5 -23 -5 -19 0 -27 2 -17 5 20 5 24 49 5 56
-8 3 -6 6 5 6 12 1 17 -7 17 -28z m96 -6 c1 -30 1 -30 -3 -2 -6 38 -36 32 -44
-8 -7 -30 -7 -30 -8 6 -1 33 1 36 27 35 23 -1 27 -5 28 -31z m79 0 c0 -23 -5
-31 -22 -33 -12 -2 -24 -11 -26 -20 -3 -9 -5 6 -6 34 -1 49 0 51 27 50 23 -1
27 -5 27 -31z m55 -20 c8 0 18 13 21 30 7 30 7 30 8 -6 1 -33 -1 -36 -26 -35
-25 1 -28 5 -30 36 -1 34 -1 34 5 5 4 -17 14 -30 22 -30z m268 19 c3 -28 1
-31 -25 -30 -35 1 -38 28 -3 37 l25 6 -25 12 -25 11 25 -3 c20 -2 26 -8 28
-33z m60 29 c-24 -6 -23 -19 3 -26 30 -8 18 -32 -17 -34 l-29 -2 30 8 c30 7
30 7 8 19 -13 7 -23 19 -23 27 0 9 9 15 23 14 16 -1 18 -2 5 -6z m160 0 c-24
-6 -23 -19 3 -26 30 -8 18 -32 -17 -34 l-29 -2 30 8 c30 7 30 7 8 19 -13 7
-23 19 -23 27 0 9 9 15 23 14 16 -1 18 -2 5 -6z m180 -14 c3 -11 2 -11 -7 1
-13 18 -27 5 -34 -30 -4 -21 -4 -21 -6 7 -1 40 37 59 47 22z m62 -8 c0 -16 6
-32 13 -34 6 -3 -4 -5 -23 -5 -19 0 -27 2 -17 5 20 5 24 49 5 56 -8 3 -6 6 5
6 12 1 17 -7 17 -28z m96 -6 c1 -30 1 -30 -3 -2 -6 38 -36 32 -44 -8 -7 -30
-7 -30 -8 6 -1 33 1 36 27 35 23 -1 27 -5 28 -31z m79 18 c-2 -10 -4 -21 -4
-25 -1 -4 -11 -9 -23 -11 -19 -4 -18 -5 5 -6 37 -1 34 -36 -3 -36 -21 0 -25 5
-27 35 -4 48 2 60 31 60 18 0 23 -5 21 -17z m244 -22 l-2 -36 -7 35 -7 35 -3
-35 c-1 -22 -4 -27 -7 -15 -10 45 -17 50 -23 15 l-7 -35 -2 37 c-1 35 1 37 29
36 28 -1 30 -4 29 -37z m79 3 c3 -28 1 -31 -25 -30 -35 1 -38 28 -3 37 l25 6
-25 12 -25 11 25 -3 c20 -2 26 -8 28 -33z m80 15 c3 -11 2 -11 -7 1 -13 18
-27 5 -34 -30 -4 -21 -4 -21 -6 7 -1 40 37 59 47 22z m237 -14 c0 -25 -4 -30
-25 -30 -16 0 -26 6 -28 18 -6 30 6 49 30 45 18 -2 23 -9 23 -33z m243 13 c3
-14 -3 -18 -24 -18 -30 0 -23 -14 11 -23 12 -3 8 -5 -10 -4 -31 2 -43 23 -31
53 8 21 50 14 54 -8z m80 1 c3 -11 2 -11 -7 1 -13 18 -27 5 -34 -30 -4 -21 -4
-21 -6 7 -1 40 37 59 47 22z m215 -30 c12 -8 -10 -49 -26 -49 -8 0 -8 3 2 9
13 8 12 20 -4 78 -3 10 0 7 7 -7 7 -14 16 -28 21 -31z m18 24 c-12 -20 -14
-14 -5 12 4 9 9 14 11 11 3 -2 0 -13 -6 -23z m389 17 c0 -5 -4 -10 -10 -10 -5
0 -10 5 -10 10 0 6 5 10 10 10 6 0 10 -4 10 -10z m-2882 -57 c-2 -9 -9 -18
-16 -19 -7 -1 -8 0 -3 2 6 3 7 12 4 20 -3 8 0 14 7 14 6 0 10 -8 8 -17z m1360
0 c-2 -9 -9 -18 -16 -19 -7 -1 -8 0 -3 2 6 3 7 12 4 20 -3 8 0 14 7 14 6 0 10
-8 8 -17z m1522 7 c0 -5 -4 -10 -10 -10 -5 0 -10 5 -10 10 0 6 5 10 10 10 6 0
10 -4 10 -10z m-4560 -80 c0 -5 -4 -10 -10 -10 -5 0 -10 5 -10 10 0 6 5 10 10
10 6 0 10 -4 10 -10z m875 -25 c16 0 20 -7 21 -35 l2 -35 -5 33 c-6 42 -35 40
-44 -3 -5 -22 -7 -16 -7 25 0 31 3 46 6 35 4 -11 16 -20 27 -20z m885 25 c0
-5 -4 -10 -10 -10 -5 0 -10 5 -10 10 0 6 5 10 10 10 6 0 10 -4 10 -10z m960 0
c0 -5 -4 -10 -10 -10 -5 0 -10 5 -10 10 0 6 5 10 10 10 6 0 10 -4 10 -10z
m-2075 -23 c18 -4 18 -5 -2 -6 -16 -1 -23 -7 -23 -21 0 -12 10 -24 23 -30 l22
-9 -22 0 c-17 -1 -25 7 -31 32 -9 33 -4 67 7 49 3 -5 15 -12 26 -15z m1440 0
c18 -4 18 -5 -2 -6 -16 -1 -23 -7 -23 -21 0 -12 10 -24 23 -30 l22 -9 -22 0
c-17 -1 -25 7 -31 32 -9 33 -4 67 7 49 3 -5 15 -12 26 -15z m480 0 c18 -4 18
-5 -2 -6 -16 -1 -23 -7 -23 -21 0 -12 10 -24 23 -30 l22 -9 -22 0 c-17 -1 -25
7 -31 32 -9 33 -4 67 7 49 3 -5 15 -12 26 -15z m1280 0 c18 -4 18 -5 -2 -6
-16 -1 -23 -7 -23 -21 0 -12 10 -24 23 -30 l22 -9 -22 0 c-17 -1 -25 7 -31 32
-9 33 -4 67 7 49 3 -5 15 -12 26 -15z m410 -7 c0 -18 -6 -26 -22 -28 -12 -2
-24 -11 -26 -20 -3 -9 -5 5 -6 31 -1 47 0 48 27 45 21 -2 27 -8 27 -28z m63
23 c-10 -2 -18 -11 -18 -19 0 -8 8 -15 18 -15 16 -1 16 -2 0 -6 -10 -2 -18
-11 -18 -18 0 -7 8 -16 18 -18 13 -4 11 -5 -5 -6 -21 -1 -23 4 -23 44 0 40 2
45 23 44 16 -1 18 -2 5 -6z m98 -4 c3 -6 1 -16 -4 -21 -8 -8 -8 -17 -1 -30 6
-11 8 -22 6 -25 -3 -2 -10 5 -17 16 -14 27 -28 27 -33 -1 -2 -13 -5 -2 -6 25
-1 44 1 47 23 47 14 0 28 -5 32 -11z m64 1 c0 -5 -4 -10 -9 -10 -5 0 -11 -9
-14 -20 -3 -13 0 -20 9 -20 8 0 14 8 15 18 0 14 2 14 9 -3 5 -11 9 -27 9 -35
-1 -10 -2 -11 -6 -2 -6 15 -35 16 -51 0 -8 -8 -7 5 4 35 14 42 34 63 34 37z
m53 -32 c-8 -59 -13 -61 -13 -5 0 26 4 47 9 47 5 0 7 -19 4 -42z m42 -46 c-7
-7 -25 17 -25 33 0 6 5 3 10 -5 7 -11 10 -5 12 25 l1 40 4 -44 c3 -23 1 -46
-2 -49z m55 8 c14 0 20 9 23 38 l4 37 -1 -40 c-1 -36 -4 -40 -26 -40 -23 0
-25 4 -26 43 l-1 42 4 -40 c3 -31 8 -40 23 -40z m83 73 c-30 -6 -29 -21 3 -33
36 -14 29 -45 -11 -46 -29 -2 -29 -2 -2 3 34 5 35 20 2 35 -38 17 -32 49 9 47
19 -2 19 -2 -1 -6z m-4713 -42 c0 -16 6 -32 13 -34 6 -3 -4 -5 -23 -5 -19 0
-27 2 -17 5 20 5 24 49 5 56 -8 3 -6 6 5 6 12 1 17 -7 17 -28z m96 -6 c1 -30
1 -30 -3 -2 -6 38 -36 32 -44 -8 -7 -30 -7 -30 -8 6 -1 33 1 36 27 35 23 -1
27 -5 28 -31z m57 25 c-13 -5 -23 -16 -23 -25 0 -9 10 -20 23 -25 17 -8 18 -9
3 -7 -28 3 -43 32 -27 51 8 9 21 16 30 15 11 0 9 -3 -6 -9z m102 -25 c0 -25
-4 -30 -25 -30 -16 0 -26 6 -28 18 -6 30 6 49 30 45 18 -2 23 -9 23 -33z m83
14 c3 -11 2 -11 -7 1 -13 18 -27 5 -34 -30 -4 -21 -4 -21 -6 7 -1 40 37 59 47
22z m80 0 c3 -11 2 -11 -7 1 -13 18 -27 5 -34 -30 -4 -21 -4 -21 -6 7 -1 40
37 59 47 22z m80 -1 c3 -14 -3 -18 -24 -18 -30 0 -23 -14 11 -23 12 -3 8 -5
-10 -4 -31 2 -43 23 -31 53 8 21 50 14 54 -8z m55 12 c-13 -5 -23 -16 -23 -25
0 -9 10 -20 23 -25 17 -8 18 -9 3 -7 -28 3 -43 32 -27 51 8 9 21 16 30 15 11
0 9 -3 -6 -9z m240 0 c-13 -5 -23 -16 -23 -25 0 -9 10 -20 23 -25 17 -8 18 -9
3 -7 -28 3 -43 32 -27 51 8 9 21 16 30 15 11 0 9 -3 -6 -9z m185 -26 c3 -28 1
-31 -25 -30 -35 1 -38 28 -3 37 l25 6 -25 12 -25 11 25 -3 c20 -2 26 -8 28
-33z m80 15 c3 -11 2 -11 -7 1 -13 18 -27 5 -34 -30 -4 -21 -4 -21 -6 7 -1 40
37 59 47 22z m157 4 c-2 -10 -4 -21 -4 -25 -1 -4 -11 -9 -23 -11 -19 -4 -18
-5 5 -6 37 -1 34 -36 -3 -36 -21 0 -25 5 -27 35 -4 48 2 60 31 60 18 0 23 -5
21 -17z m55 -38 c8 0 18 13 21 30 7 30 7 30 8 -6 1 -33 -1 -36 -26 -35 -25 1
-28 5 -30 36 -1 34 -1 34 5 5 4 -17 14 -30 22 -30z m108 33 c3 -14 -3 -18 -24
-18 -30 0 -23 -14 11 -23 12 -3 8 -5 -10 -4 -31 2 -43 23 -31 53 8 21 50 14
54 -8z m60 15 c-24 -6 -23 -19 3 -26 30 -8 18 -32 -17 -34 l-29 -2 30 8 c30 7
30 7 8 19 -13 7 -23 19 -23 27 0 9 9 15 23 14 16 -1 18 -2 5 -6z m80 0 c-24
-6 -23 -19 3 -26 30 -8 18 -32 -17 -34 l-29 -2 30 8 c30 7 30 7 8 19 -13 7
-23 19 -23 27 0 9 9 15 23 14 16 -1 18 -2 5 -6z m242 -22 c0 -16 6 -32 13 -34
6 -3 -4 -5 -23 -5 -19 0 -27 2 -17 5 20 5 24 49 5 56 -8 3 -6 6 5 6 12 1 17
-7 17 -28z m96 -6 c1 -30 1 -30 -3 -2 -6 38 -36 32 -44 -8 -7 -30 -7 -30 -8 6
-1 33 1 36 27 35 23 -1 27 -5 28 -31z m79 0 c0 -23 -5 -31 -22 -33 -12 -2 -24
-11 -26 -20 -3 -9 -5 6 -6 34 -1 49 0 51 27 50 23 -1 27 -5 27 -31z m55 -20
c8 0 18 13 21 30 7 30 7 30 8 -6 1 -33 -1 -36 -26 -35 -25 1 -28 5 -30 36 -1
34 -1 34 5 5 4 -17 14 -30 22 -30z m268 19 c3 -28 1 -31 -25 -30 -35 1 -38 28
-3 37 l25 6 -25 12 -25 11 25 -3 c20 -2 26 -8 28 -33z m60 29 c-24 -6 -23 -19
3 -26 30 -8 18 -32 -17 -34 l-29 -2 30 8 c30 7 30 7 8 19 -13 7 -23 19 -23 27
0 9 9 15 23 14 16 -1 18 -2 5 -6z m160 0 c-24 -6 -23 -19 3 -26 30 -8 18 -32
-17 -34 l-29 -2 30 8 c30 7 30 7 8 19 -13 7 -23 19 -23 27 0 9 9 15 23 14 16
-1 18 -2 5 -6z m180 -14 c3 -11 2 -11 -7 1 -13 18 -27 5 -34 -30 -4 -21 -4
-21 -6 7 -1 40 37 59 47 22z m62 -8 c0 -16 6 -32 13 -34 6 -3 -4 -5 -23 -5
-19 0 -27 2 -17 5 20 5 24 49 5 56 -8 3 -6 6 5 6 12 1 17 -7 17 -28z m96 -6
c1 -30 1 -30 -3 -2 -6 38 -36 32 -44 -8 -7 -30 -7 -30 -8 6 -1 33 1 36 27 35
23 -1 27 -5 28 -31z m79 18 c-2 -10 -4 -21 -4 -25 -1 -4 -11 -9 -23 -11 -19
-4 -18 -5 5 -6 37 -1 34 -36 -3 -36 -21 0 -25 5 -27 35 -4 48 2 60 31 60 18 0
23 -5 21 -17z m241 -18 c1 -30 1 -30 -3 -2 -6 38 -36 32 -44 -8 -7 -30 -7 -30
-8 6 -1 33 1 36 27 35 23 -1 27 -5 28 -31z m79 0 c0 -25 -4 -30 -25 -30 -16 0
-26 6 -28 18 -6 30 6 49 30 45 18 -2 23 -9 23 -33z m143 28 c-24 -6 -23 -19 3
-26 30 -8 18 -32 -17 -34 l-29 -2 30 8 c30 7 30 7 8 19 -13 7 -23 19 -23 27 0
9 9 15 23 14 16 -1 18 -2 5 -6z m100 -15 c3 -14 -3 -18 -24 -18 -30 0 -23 -14
11 -23 12 -3 8 -5 -10 -4 -31 2 -43 23 -31 53 8 21 50 14 54 -8z m77 -13 c0
-23 -5 -31 -22 -33 -12 -2 -24 -11 -26 -20 -3 -9 -5 6 -6 34 -1 49 0 51 27 50
23 -1 27 -5 27 -31z m83 -1 c3 -28 1 -31 -25 -30 -35 1 -38 28 -3 37 l25 6
-25 12 -25 11 25 -3 c20 -2 26 -8 28 -33z m80 15 c3 -11 2 -11 -7 1 -13 18
-27 5 -34 -30 -4 -21 -4 -21 -6 7 -1 40 37 59 47 22z m80 -15 c3 -28 1 -31
-25 -30 -35 1 -38 28 -3 37 l25 6 -25 12 -25 11 25 -3 c20 -2 26 -8 28 -33z
m157 1 c0 -25 -4 -30 -25 -30 -16 0 -26 6 -28 18 -6 30 6 49 30 45 18 -2 23
-9 23 -33z m83 14 c3 -11 2 -11 -7 1 -13 18 -27 5 -34 -30 -4 -21 -4 -21 -6 7
-1 40 37 59 47 22z m62 11 c0 -5 -4 -10 -10 -10 -5 0 -10 5 -10 10 0 6 5 10
10 10 6 0 10 -4 10 -10z m-2482 -57 c-2 -9 -9 -18 -16 -19 -7 -1 -8 0 -3 2 6
3 7 12 4 20 -3 8 0 14 7 14 6 0 10 -8 8 -17z m1360 0 c-2 -9 -9 -18 -16 -19
-7 -1 -8 0 -3 2 6 3 7 12 4 20 -3 8 0 14 7 14 6 0 10 -8 8 -17z m1122 7 c0 -5
-4 -10 -10 -10 -5 0 -10 5 -10 10 0 6 5 10 10 10 6 0 10 -4 10 -10z m-6780
-570 l0 -290 -290 0 -290 0 0 290 0 290 290 0 290 0 0 -290z m1240 0 l0 -290
-290 0 -290 0 0 290 0 290 290 0 290 0 0 -290z m620 0 l0 -290 -290 0 -290 0
0 290 0 290 290 0 290 0 0 -290z m620 0 l0 -290 -290 0 -290 0 0 290 0 290
290 0 290 0 0 -290z m-1880 0 l0 -270 -270 0 -270 0 0 270 0 270 270 0 270 0
0 -270z"/>
<path d="M5527 1293 c-4 -3 -7 -15 -7 -25 0 -28 34 -19 38 10 3 21 -16 31 -31
15z"/>
<path d="M6887 1293 c-4 -3 -7 -15 -7 -25 0 -28 34 -19 38 10 3 21 -16 31 -31
15z"/>
<path d="M7607 1313 c-4 -3 -7 -19 -7 -35 0 -43 34 -34 38 10 3 31 -13 44 -31
25z"/>
<path d="M3520 1260 c0 -5 6 -10 14 -10 8 0 18 5 21 10 3 6 -3 10 -14 10 -12
0 -21 -4 -21 -10z"/>
<path d="M3607 1293 c-4 -3 -7 -15 -7 -25 0 -28 34 -19 38 10 3 21 -16 31 -31
15z"/>
<path d="M3840 1260 c0 -5 6 -10 14 -10 8 0 18 5 21 10 3 6 -3 10 -14 10 -12
0 -21 -4 -21 -10z"/>
<path d="M4240 1260 c0 -5 6 -10 14 -10 8 0 18 5 21 10 3 6 -3 10 -14 10 -12
0 -21 -4 -21 -10z"/>
<path d="M4800 1274 c0 -33 33 -30 38 4 3 17 -2 22 -17 22 -16 0 -21 -6 -21
-26z"/>
<path d="M5045 1290 c-3 -5 3 -10 15 -10 12 0 18 5 15 10 -3 6 -10 10 -15 10
-5 0 -12 -4 -15 -10z"/>
<path d="M5360 1274 c0 -33 33 -30 38 4 3 17 -2 22 -17 22 -16 0 -21 -6 -21
-26z"/>
<path d="M5605 1290 c-3 -5 3 -10 15 -10 12 0 18 5 15 10 -3 6 -10 10 -15 10
-5 0 -12 -4 -15 -10z"/>
<path d="M6000 1260 c0 -5 6 -10 14 -10 8 0 18 5 21 10 3 6 -3 10 -14 10 -12
0 -21 -4 -21 -10z"/>
<path d="M6560 1274 c0 -33 33 -30 38 4 3 17 -2 22 -17 22 -16 0 -21 -6 -21
-26z"/>
<path d="M4407 1133 c-4 -3 -7 -15 -7 -25 0 -28 34 -19 38 10 3 21 -16 31 -31
15z"/>
<path d="M7527 1133 c-4 -3 -7 -15 -7 -25 0 -28 34 -19 38 10 3 21 -16 31 -31
15z"/>
<path d="M8160 1145 c0 -10 7 -15 18 -13 21 4 19 22 -2 26 -10 2 -16 -3 -16
-13z"/>
<path d="M8160 1105 c0 -8 9 -15 20 -15 11 0 20 7 20 15 0 8 -9 15 -20 15 -11
0 -20 -7 -20 -15z"/>
<path d="M3680 1114 c0 -33 33 -30 38 4 3 17 -2 22 -17 22 -16 0 -21 -6 -21
-26z"/>
<path d="M3925 1130 c-3 -5 3 -10 15 -10 12 0 18 5 15 10 -3 6 -10 10 -15 10
-5 0 -12 -4 -15 -10z"/>
<path d="M4240 1114 c0 -33 33 -30 38 4 3 17 -2 22 -17 22 -16 0 -21 -6 -21
-26z"/>
<path d="M4485 1130 c-3 -5 3 -10 15 -10 12 0 18 5 15 10 -3 6 -10 10 -15 10
-5 0 -12 -4 -15 -10z"/>
<path d="M4725 1131 c-7 -12 12 -24 25 -16 11 7 4 25 -10 25 -5 0 -11 -4 -15
-9z"/>
<path d="M4720 1070 c0 -5 9 -10 20 -10 11 0 20 5 20 10 0 6 -9 10 -20 10 -11
0 -20 -4 -20 -10z"/>
<path d="M4885 1130 c-3 -5 3 -10 15 -10 12 0 18 5 15 10 -3 6 -10 10 -15 10
-5 0 -12 -4 -15 -10z"/>
<path d="M5447 1133 c-4 -3 -7 -15 -7 -25 0 -28 34 -19 38 10 3 21 -16 31 -31
15z"/>
<path d="M5760 1100 c0 -5 6 -10 14 -10 8 0 18 5 21 10 3 6 -3 10 -14 10 -12
0 -21 -4 -21 -10z"/>
<path d="M6405 1131 c-7 -12 12 -24 25 -16 11 7 4 25 -10 25 -5 0 -11 -4 -15
-9z"/>
<path d="M6400 1070 c0 -5 9 -10 20 -10 11 0 20 5 20 10 0 6 -9 10 -20 10 -11
0 -20 -4 -20 -10z"/>
<path d="M6720 1100 c0 -5 6 -10 14 -10 8 0 18 5 21 10 3 6 -3 10 -14 10 -12
0 -21 -4 -21 -10z"/>
<path d="M7040 1114 c0 -33 33 -30 38 4 3 17 -2 22 -17 22 -16 0 -21 -6 -21
-26z"/>
<path d="M7285 1130 c-3 -5 3 -10 15 -10 12 0 18 5 15 10 -3 6 -10 10 -15 10
-5 0 -12 -4 -15 -10z"/>
<path d="M7680 980 c0 -15 5 -20 18 -18 9 2 17 10 17 18 0 8 -8 16 -17 18 -13
2 -18 -3 -18 -18z"/>
<path d="M7840 985 c0 -10 7 -15 18 -13 21 4 19 22 -2 26 -10 2 -16 -3 -16
-13z"/>
<path d="M3680 954 c0 -33 33 -30 38 4 3 17 -2 22 -17 22 -16 0 -21 -6 -21
-26z"/>
<path d="M3925 970 c-3 -5 3 -10 15 -10 12 0 18 5 15 10 -3 6 -10 10 -15 10
-5 0 -12 -4 -15 -10z"/>
<path d="M4400 940 c0 -5 6 -10 14 -10 8 0 18 5 21 10 3 6 -3 10 -14 10 -12 0
-21 -4 -21 -10z"/>
<path d="M4645 971 c-7 -12 12 -24 25 -16 11 7 4 25 -10 25 -5 0 -11 -4 -15
-9z"/>
<path d="M4640 910 c0 -5 9 -10 20 -10 11 0 20 5 20 10 0 6 -9 10 -20 10 -11
0 -20 -4 -20 -10z"/>
<path d="M4805 970 c-3 -5 3 -10 15 -10 12 0 18 5 15 10 -3 6 -10 10 -15 10
-5 0 -12 -4 -15 -10z"/>
<path d="M5367 973 c-4 -3 -7 -15 -7 -25 0 -28 34 -19 38 10 3 21 -16 31 -31
15z"/>
<path d="M5680 940 c0 -5 6 -10 14 -10 8 0 18 5 21 10 3 6 -3 10 -14 10 -12 0
-21 -4 -21 -10z"/>
<path d="M6325 971 c-7 -12 12 -24 25 -16 11 7 4 25 -10 25 -5 0 -11 -4 -15
-9z"/>
<path d="M6320 910 c0 -5 9 -10 20 -10 11 0 20 5 20 10 0 6 -9 10 -20 10 -11
0 -20 -4 -20 -10z"/>
<path d="M6640 954 c0 -33 33 -30 38 4 3 17 -2 22 -17 22 -16 0 -21 -6 -21
-26z"/>
<path d="M6885 970 c-3 -5 3 -10 15 -10 12 0 18 5 15 10 -3 6 -10 10 -15 10
-5 0 -12 -4 -15 -10z"/>
<path d="M6967 973 c-4 -3 -7 -15 -7 -25 0 -28 34 -19 38 10 3 21 -16 31 -31
15z"/>
<path d="M7040 940 c0 -5 6 -10 14 -10 8 0 18 5 21 10 3 6 -3 10 -14 10 -12 0
-21 -4 -21 -10z"/>
<path d="M7200 940 c0 -5 6 -10 14 -10 8 0 18 5 21 10 3 6 -3 10 -14 10 -12 0
-21 -4 -21 -10z"/>
<path d="M7360 954 c0 -33 33 -30 38 4 3 17 -2 22 -17 22 -16 0 -21 -6 -21
-26z"/>
</g>
</svg>
